<svg width="96" height="96" viewBox="0 0 96 96" fill="none" xmlns="http://www.w3.org/2000/svg">
<g filter="url(#filter0_d_13248_10459)">
<rect x="12" y="12" width="64" height="64" rx="32" fill="#F1F5F3" shape-rendering="crispEdges"/>
<g clip-path="url(#clip0_13248_10459)">
<path fill-rule="evenodd" clip-rule="evenodd" d="M46.579 44.5717C47.133 44.0231 47.8843 43.7148 48.6677 43.7148H62.4525C63.2359 43.7148 63.9872 44.0231 64.5412 44.5717C65.0951 45.1203 65.4063 45.8644 65.4063 46.6402V60.7796C65.4063 61.784 64.2484 62.3574 63.4371 61.7547L60.1553 59.3169H48.6677C47.8843 59.3169 47.133 59.0087 46.579 58.4601C46.0251 57.9115 45.7139 57.1674 45.7139 56.3915V46.6402C45.7139 45.8644 46.0251 45.1203 46.579 44.5717Z" fill="#ABC0B4"/>
<path fill-rule="evenodd" clip-rule="evenodd" d="M52.5942 28.3923C51.6941 27.5008 50.4732 27 49.2001 27H26.8C25.527 27 24.3061 27.5008 23.4059 28.3923C22.5057 29.2838 22 30.493 22 31.7537V54.7301C22 56.3623 23.8816 57.294 25.2 56.3147L30.5328 52.3533H49.2001C50.4732 52.3533 51.6941 51.8524 52.5942 50.9609C53.4944 50.0694 54.0001 48.8603 54.0001 47.5995V31.7537C54.0001 30.493 53.4944 29.2838 52.5942 28.3923Z" fill="#5D7B6A"/>
<path d="M37.4966 41.6935C37.2001 41.4163 36.8078 41.2616 36.4 41.2612H31.6L31.4128 41.2723C31.0079 41.32 30.6366 41.519 30.3748 41.8287C30.1131 42.1384 29.9806 42.5354 30.0045 42.9386C30.0284 43.3418 30.2069 43.7207 30.5034 43.998C30.8 44.2752 31.1922 44.4299 31.6 44.4303H36.4L36.5872 44.4192C36.9922 44.3715 37.3635 44.1725 37.6252 43.8628C37.887 43.5531 38.0194 43.1561 37.9955 42.7529C37.9716 42.3497 37.7932 41.9708 37.4966 41.6935Z" fill="#F1F5F3"/>
<path d="M45.5314 35.387C45.2314 35.0898 44.8244 34.9229 44.4001 34.9229H31.6C31.1757 34.9229 30.7687 35.0898 30.4686 35.387C30.1686 35.6841 30 36.0872 30 36.5074C30 36.9277 30.1686 37.3307 30.4686 37.6279C30.7687 37.9251 31.1757 38.092 31.6 38.092H44.4001C44.8244 38.092 45.2314 37.9251 45.5314 37.6279C45.8315 37.3307 46.0001 36.9277 46.0001 36.5074C46.0001 36.0872 45.8315 35.6841 45.5314 35.387Z" fill="#F1F5F3"/>
<path d="M67.2735 32.9664C66.7352 32.7973 63.9821 31.8668 63.7791 31.7822C63.682 31.7446 63.6114 31.5566 63.5762 31.237C63.285 28.8497 62.8261 26.3966 62.6231 26.124C62.4731 25.9172 61.9613 25.983 61.8201 26.218C61.6789 26.453 61.026 28.8309 60.6377 30.5603L60.3818 31.6882C55.3697 33.38 55.0961 33.3424 57.3639 34.0849L59.367 34.7428C60.5053 35.1188 60.5318 35.1281 60.5936 35.4289C60.6818 35.8613 61.2554 37.9666 61.476 38.9723C61.9437 41.1341 62.8967 39.7994 63.735 35.7767L63.9291 34.8556C64.035 34.8368 64.7056 34.771 67.6 34.1037C68.2618 33.9439 68.0677 33.2108 67.2735 32.9664ZM66.0205 33.427C65.9499 33.4928 64.0174 33.9909 63.6379 33.9909C63.1791 33.9909 63.0732 34.2259 62.5525 36.4346C62.2084 37.8914 62.1819 37.9196 61.9878 37.0737C61.7495 36.0116 61.2642 34.771 61.2024 34.4797C61.1495 34.2165 60.6553 34.0285 58.7405 33.5398C57.7786 33.2954 57.6286 33.2108 57.9904 33.098C58.4405 32.957 60.6024 32.2051 60.8495 32.2051C61.0877 32.2051 61.2907 32.0171 61.3613 31.7352L62.0496 28.8779C62.1731 28.3798 62.1731 28.3798 62.5172 30.3253C62.9143 32.5153 62.8702 32.4213 63.5056 32.5623C64.2997 32.7408 66.0999 33.3518 66.0205 33.427Z" fill="#E76B39"/>
<path d="M66.0205 33.427C65.9499 33.4928 64.0174 33.9909 63.6379 33.9909C63.1791 33.9909 63.0732 34.2259 62.5525 36.4346C62.2084 37.8914 62.1819 37.9196 61.9878 37.0737C61.7495 36.0116 61.2642 34.771 61.2024 34.4797C61.1495 34.2165 60.6553 34.0285 58.7405 33.5398C57.7786 33.2954 57.6286 33.2108 57.9904 33.098C58.4405 32.957 60.6024 32.2051 60.8495 32.2051C61.0877 32.2051 61.2907 32.0171 61.3613 31.7352L62.0496 28.8779C62.1731 28.3798 62.1731 28.3798 62.5172 30.3253C62.9143 32.5153 62.8702 32.4213 63.5056 32.5623C64.2997 32.7408 66.0999 33.3518 66.0205 33.427Z" fill="#E76B39"/>
</g>
</g>
<defs>
<filter id="filter0_d_13248_10459" x="0" y="0" width="96" height="96" filterUnits="userSpaceOnUse" color-interpolation-filters="sRGB">
<feFlood flood-opacity="0" result="BackgroundImageFix"/>
<feColorMatrix in="SourceAlpha" type="matrix" values="0 0 0 0 0 0 0 0 0 0 0 0 0 0 0 0 0 0 127 0" result="hardAlpha"/>
<feOffset dx="4" dy="4"/>
<feGaussianBlur stdDeviation="8"/>
<feComposite in2="hardAlpha" operator="out"/>
<feColorMatrix type="matrix" values="0 0 0 0 0 0 0 0 0 0 0 0 0 0 0 0 0 0 0.08 0"/>
<feBlend mode="normal" in2="BackgroundImageFix" result="effect1_dropShadow_13248_10459"/>
<feBlend mode="normal" in="SourceGraphic" in2="effect1_dropShadow_13248_10459" result="shape"/>
</filter>
<clipPath id="clip0_13248_10459">
<rect width="48" height="48" fill="white" transform="translate(20 20)"/>
</clipPath>
</defs>
</svg>
