<svg width="26" height="26" viewBox="0 0 26 26" fill="none" xmlns="http://www.w3.org/2000/svg">
<g clip-path="url(#clip0_13259_21237)">
<path d="M18.3333 8.33331C18.4209 8.33331 18.5076 8.35056 18.5885 8.38406C18.6693 8.41756 18.7428 8.46667 18.8047 8.52857C18.8666 8.59048 18.9157 8.66397 18.9493 8.74486C18.9828 8.82574 19 8.91243 19 8.99998C19 9.08753 18.9828 9.17422 18.9493 9.2551C18.9157 9.33599 18.8666 9.40948 18.8047 9.47138C18.7428 9.53329 18.6693 9.5824 18.5885 9.6159C18.5076 9.6494 18.4209 9.66665 18.3333 9.66665H17.6667L17.6647 9.71398L17.0427 18.428C17.0187 18.7644 16.8682 19.0792 16.6214 19.309C16.3746 19.5389 16.0499 19.6667 15.7127 19.6666H10.2867C9.94943 19.6667 9.62471 19.5389 9.37792 19.309C9.13114 19.0792 8.98061 18.7644 8.95667 18.428L8.33467 9.71465C8.33366 9.69867 8.33321 9.68266 8.33333 9.66665H7.66667C7.48986 9.66665 7.32029 9.59641 7.19526 9.47138C7.07024 9.34636 7 9.17679 7 8.99998C7 8.82317 7.07024 8.6536 7.19526 8.52857C7.32029 8.40355 7.48986 8.33331 7.66667 8.33331H18.3333ZM16.3313 9.66665H9.66867L10.2873 18.3333H15.7127L16.3313 9.66665ZM14.3333 6.33331C14.5101 6.33331 14.6797 6.40355 14.8047 6.52858C14.9298 6.6536 15 6.82317 15 6.99998C15 7.17679 14.9298 7.34636 14.8047 7.47138C14.6797 7.59641 14.5101 7.66665 14.3333 7.66665H11.6667C11.4899 7.66665 11.3203 7.59641 11.1953 7.47138C11.0702 7.34636 11 7.17679 11 6.99998C11 6.82317 11.0702 6.6536 11.1953 6.52858C11.3203 6.40355 11.4899 6.33331 11.6667 6.33331H14.3333Z" fill="#646D89"/>
</g>
<defs>
<clipPath id="clip0_13259_21237">
<rect width="16" height="16" fill="white" transform="translate(5 5)"/>
</clipPath>
</defs>
</svg>
