<svg width="26" height="26" viewBox="0 0 26 26" fill="none" xmlns="http://www.w3.org/2000/svg">
<path d="M10 9C9.46957 9 8.96086 8.78929 8.58579 8.41421C8.21071 8.03914 8 7.53043 8 7C8 6.46957 8.21071 5.96086 8.58579 5.58579C8.96086 5.21071 9.46957 5 10 5C10.5304 5 11.0391 5.21071 11.4142 5.58579C11.7893 5.96086 12 6.46957 12 7C12 7.53043 11.7893 8.03914 11.4142 8.41421C11.0391 8.78929 10.5304 9 10 9ZM10 15C9.46957 15 8.96086 14.7893 8.58579 14.4142C8.21071 14.0391 8 13.5304 8 13C8 12.4696 8.21071 11.9609 8.58579 11.5858C8.96086 11.2107 9.46957 11 10 11C10.5304 11 11.0391 11.2107 11.4142 11.5858C11.7893 11.9609 12 12.4696 12 13C12 13.5304 11.7893 14.0391 11.4142 14.4142C11.0391 14.7893 10.5304 15 10 15ZM10 21C9.46957 21 8.96086 20.7893 8.58579 20.4142C8.21071 20.0391 8 19.5304 8 19C8 18.4696 8.21071 17.9609 8.58579 17.5858C8.96086 17.2107 9.46957 17 10 17C10.5304 17 11.0391 17.2107 11.4142 17.5858C11.7893 17.9609 12 18.4696 12 19C12 19.5304 11.7893 20.0391 11.4142 20.4142C11.0391 20.7893 10.5304 21 10 21Z" fill="#646D89"/>
<path d="M16 9C15.4696 9 14.9609 8.78929 14.5858 8.41421C14.2107 8.03914 14 7.53043 14 7C14 6.46957 14.2107 5.96086 14.5858 5.58579C14.9609 5.21071 15.4696 5 16 5C16.5304 5 17.0391 5.21071 17.4142 5.58579C17.7893 5.96086 18 6.46957 18 7C18 7.53043 17.7893 8.03914 17.4142 8.41421C17.0391 8.78929 16.5304 9 16 9ZM16 15C15.4696 15 14.9609 14.7893 14.5858 14.4142C14.2107 14.0391 14 13.5304 14 13C14 12.4696 14.2107 11.9609 14.5858 11.5858C14.9609 11.2107 15.4696 11 16 11C16.5304 11 17.0391 11.2107 17.4142 11.5858C17.7893 11.9609 18 12.4696 18 13C18 13.5304 17.7893 14.0391 17.4142 14.4142C17.0391 14.7893 16.5304 15 16 15ZM16 21C15.4696 21 14.9609 20.7893 14.5858 20.4142C14.2107 20.0391 14 19.5304 14 19C14 18.4696 14.2107 17.9609 14.5858 17.5858C14.9609 17.2107 15.4696 17 16 17C16.5304 17 17.0391 17.2107 17.4142 17.5858C17.7893 17.9609 18 18.4696 18 19C18 19.5304 17.7893 20.0391 17.4142 20.4142C17.0391 20.7893 16.5304 21 16 21Z" fill="#646D89"/>
</svg>
