<svg width="14" height="14" viewBox="0 0 14 14" fill="none" xmlns="http://www.w3.org/2000/svg">
<path fill-rule="evenodd" clip-rule="evenodd" d="M13.4016 6.99961C13.4016 10.5342 10.5362 13.3996 7.00156 13.3996C3.46694 13.3996 0.601562 10.5342 0.601562 6.99961C0.601562 3.46499 3.46694 0.599609 7.00156 0.599609C10.5362 0.599609 13.4016 3.46499 13.4016 6.99961ZM7.80156 10.1996C7.80156 10.6414 7.44339 10.9996 7.00156 10.9996C6.55974 10.9996 6.20156 10.6414 6.20156 10.1996C6.20156 9.75778 6.55974 9.39961 7.00156 9.39961C7.44339 9.39961 7.80156 9.75778 7.80156 10.1996ZM7.00156 2.99961C6.55974 2.99961 6.20156 3.35778 6.20156 3.79961V6.99961C6.20156 7.44144 6.55974 7.79961 7.00156 7.79961C7.44339 7.79961 7.80156 7.44144 7.80156 6.99961V3.79961C7.80156 3.35778 7.44339 2.99961 7.00156 2.99961Z" fill="#B80000"/>
</svg>
