<svg width="26" height="26" viewBox="0 0 26 26" fill="none" xmlns="http://www.w3.org/2000/svg">
<g clip-path="url(#clip0_13259_21232)">
<path d="M15.6903 7.00997C16.0493 6.6509 16.5314 6.44181 17.0389 6.4251C17.5464 6.40838 18.0412 6.5853 18.423 6.91997L18.519 7.00997L18.9903 7.48131C19.3492 7.84025 19.5582 8.32223 19.5749 8.82953C19.5916 9.33683 19.4148 9.83152 19.0803 10.2133L18.9903 10.3093L11.5157 17.7846C11.41 17.8903 11.282 17.971 11.141 18.0206L11.033 18.052L8.06367 18.7373C7.95965 18.7613 7.85137 18.7601 7.74794 18.7336C7.64451 18.7071 7.54895 18.6562 7.46926 18.5852C7.38958 18.5141 7.32811 18.425 7.29002 18.3252C7.25193 18.2255 7.23832 18.1181 7.25034 18.012L7.26367 17.9366L7.94834 14.9666C7.98216 14.821 8.04823 14.6847 8.14167 14.568L8.21567 14.4846L15.6903 7.00997ZM15.219 9.36664L9.22567 15.36L8.80167 17.1986L10.6403 16.774L16.6337 10.7806L15.219 9.36664ZM17.5763 7.95264C17.4615 7.83785 17.3088 7.7689 17.1468 7.75871C16.9848 7.74852 16.8246 7.7978 16.6963 7.89731L16.6337 7.95264L16.1617 8.42397L17.5763 9.83797L18.0477 9.36664C18.1625 9.25184 18.2314 9.09911 18.2416 8.93709C18.2518 8.77508 18.2025 8.61491 18.103 8.48664L18.0477 8.42397L17.5763 7.95264Z" fill="#646D89"/>
</g>
<defs>
<clipPath id="clip0_13259_21232">
<rect width="16" height="16" fill="white" transform="translate(5 5)"/>
</clipPath>
</defs>
</svg>
